<?xml version="1.0" encoding="UTF-8"?>
<!DOCTYPE svg PUBLIC "-//W3C//DTD SVG 1.1//EN" "http://www.w3.org/Graphics/SVG/1.1/DTD/svg11.dtd">
<svg xmlns="http://www.w3.org/2000/svg" version="1.1" width="345px" height="423px" style="shape-rendering:geometricPrecision; text-rendering:geometricPrecision; image-rendering:optimizeQuality; fill-rule:evenodd; clip-rule:evenodd" xmlns:xlink="http://www.w3.org/1999/xlink">
<g><path style="opacity:0.388" fill="#cfc9b1" d="M 107.5,44.5 C 107.771,46.3797 107.104,47.713 105.5,48.5C 105.66,46.847 106.326,45.5137 107.5,44.5 Z"/></g>
<g><path style="opacity:1" fill="#f5a704" d="M 107.5,44.5 C 110.102,46.9639 111.768,49.9639 112.5,53.5C 114.661,53.8258 116.494,54.8258 118,56.5C 122.408,61.6521 126.575,66.9855 130.5,72.5C 131.689,73.4287 133.022,73.762 134.5,73.5C 134.5,74.5 134.5,75.5 134.5,76.5C 136.672,77.8011 139.005,78.8011 141.5,79.5C 141.864,82.8843 143.197,85.8843 145.5,88.5C 148.543,89.8736 151.543,91.2069 154.5,92.5C 154.655,96.1493 156.322,98.816 159.5,100.5C 169.428,102.922 179.094,105.922 188.5,109.5C 188.389,110.117 188.056,110.617 187.5,111C 189.878,111.511 192.212,112.178 194.5,113C 193.833,113.333 193.167,113.667 192.5,114C 193.624,114.249 194.624,114.749 195.5,115.5C 194.167,116.5 194.167,117.5 195.5,118.5C 192.893,119.318 190.226,119.818 187.5,120C 188.252,120.671 188.586,121.504 188.5,122.5C 187.417,122.539 186.417,122.873 185.5,123.5C 183.885,127.009 182.885,130.675 182.5,134.5C 178.838,134.277 175.505,133.277 172.5,131.5C 169.976,130.2 167.309,130.2 164.5,131.5C 163.691,133.071 163.357,134.738 163.5,136.5C 163.323,138.981 164.323,140.814 166.5,142C 170.5,143 174.5,144 178.5,145C 182.746,147.998 182.413,150.498 177.5,152.5C 173.725,151.817 170.059,150.817 166.5,149.5C 161.751,148.412 158.751,150.079 157.5,154.5C 155.469,156.906 153.802,159.573 152.5,162.5C 154.038,166.707 155.038,171.04 155.5,175.5C 158.633,176.119 161.133,177.786 163,180.5C 167.925,183.692 173.092,184.192 178.5,182C 179.337,180.989 179.67,179.822 179.5,178.5C 182.043,177.643 184.377,176.31 186.5,174.5C 188.215,171.542 190.215,168.876 192.5,166.5C 200.261,172.965 200.261,179.632 192.5,186.5C 191.691,188.071 191.357,189.738 191.5,191.5C 191.953,192.458 192.619,193.292 193.5,194C 191.697,194.637 190.364,195.803 189.5,197.5C 188.667,196.5 187.833,195.5 187,194.5C 186.833,194.833 186.667,195.167 186.5,195.5C 187.64,197.473 188.973,199.307 190.5,201C 190.167,201.333 189.833,201.667 189.5,202C 191.167,202.333 192.833,202.667 194.5,203C 190.871,203.314 187.538,204.481 184.5,206.5C 183.158,205.098 182.324,205.431 182,207.5C 181.316,206.216 181.483,205.049 182.5,204C 180.667,203.5 179.5,202.333 179,200.5C 177.364,202.55 175.198,203.55 172.5,203.5C 172.843,205.483 172.176,206.817 170.5,207.5C 167.995,200.944 163.328,196.944 156.5,195.5C 149.496,196.802 146.496,200.802 147.5,207.5C 144.653,211.78 142.153,211.447 140,206.5C 137.929,209.416 136.595,209.082 136,205.5C 135.026,207.878 134.359,207.544 134,204.5C 132.887,205.711 131.72,205.711 130.5,204.5C 128.501,205.508 126.834,206.841 125.5,208.5C 125.338,206.473 125.505,204.473 126,202.5C 135.9,172.334 144.4,142.001 151.5,111.5C 149.533,111.261 147.699,111.594 146,112.5C 139.742,137.766 132.575,162.432 124.5,186.5C 124.688,184.897 124.188,183.563 123,182.5C 122.667,182.833 122.333,183.167 122,183.5C 121.577,182.044 120.744,181.544 119.5,182C 120.257,183.512 121.257,184.846 122.5,186C 120.833,187 119.167,188 117.5,189C 118.28,190.073 118.113,191.24 117,192.5C 116.086,191.346 115.253,191.513 114.5,193C 117.087,194.525 117.92,196.692 117,199.5C 115.293,194.979 112.626,194.313 109,197.5C 107.637,195.216 106.137,195.049 104.5,197C 104.833,197.333 105.167,197.667 105.5,198C 104.258,198.311 103.258,197.811 102.5,196.5C 101.646,197.522 100.646,198.355 99.5,199C 101.271,199.535 101.604,200.369 100.5,201.5C 99.1575,200.098 98.3242,200.431 98,202.5C 97.6924,201.692 97.1924,201.025 96.5,200.5C 95.7838,202.482 94.6171,204.149 93,205.5C 92.342,203.892 92.842,202.725 94.5,202C 92.9556,200.813 91.2889,200.48 89.5,201C 90.7472,202.494 90.7472,203.994 89.5,205.5C 88.1166,202.924 87.2833,203.258 87,206.5C 84.3119,204.092 81.4785,202.092 78.5,200.5C 78.4125,203.598 78.9125,203.932 80,201.5C 80.7828,203.319 80.2828,204.652 78.5,205.5C 77.6184,204.24 76.6184,203.074 75.5,202C 77.9766,200.367 79.8099,198.2 81,195.5C 81.9803,196.981 83.147,198.315 84.5,199.5C 85.5208,196.29 84.3542,193.957 81,192.5C 78.9417,194.068 76.7751,195.402 74.5,196.5C 71.1993,195.159 68.1993,193.492 65.5,191.5C 65.3893,190.883 65.056,190.383 64.5,190C 65.7645,187.042 67.0978,184.209 68.5,181.5C 70.7403,177.902 72.0736,173.902 72.5,169.5C 72.3893,168.883 72.056,168.383 71.5,168C 73.8626,159.947 76.5293,152.114 79.5,144.5C 81.181,141.418 81.8476,138.085 81.5,134.5C 90.3277,106.534 98.3277,77.8673 105.5,48.5C 107.104,47.713 107.771,46.3797 107.5,44.5 Z"/></g>
<g><path style="opacity:1" fill="#fcdca4" d="M 320.5,104.5 C 320.333,101.043 319.333,100.71 317.5,103.5C 308.606,105.121 300.273,108.121 292.5,112.5C 291.707,112.069 290.873,111.735 290,111.5C 283.397,113.967 276.563,115.801 269.5,117C 263.083,119.685 256.75,122.518 250.5,125.5C 245.83,124.871 241.164,123.538 236.5,121.5C 232.327,122.332 228.327,122.332 224.5,121.5C 220.335,119.711 216.335,117.711 212.5,115.5C 210.671,116.288 209.004,115.788 207.5,114C 201.327,113.164 195.494,111.331 190,108.5C 189.617,109.056 189.117,109.389 188.5,109.5C 179.094,105.922 169.428,102.922 159.5,100.5C 156.322,98.816 154.655,96.1493 154.5,92.5C 151.543,91.2069 148.543,89.8736 145.5,88.5C 143.197,85.8843 141.864,82.8843 141.5,79.5C 139.005,78.8011 136.672,77.8011 134.5,76.5C 134.5,75.5 134.5,74.5 134.5,73.5C 133.022,73.762 131.689,73.4287 130.5,72.5C 126.575,66.9855 122.408,61.6521 118,56.5C 116.494,54.8258 114.661,53.8258 112.5,53.5C 111.768,49.9639 110.102,46.9639 107.5,44.5C 105.355,41.9686 105.688,39.4686 108.5,37C 114.077,33.886 120.077,31.886 126.5,31C 129.207,29.8723 131.707,28.3723 134,26.5C 134.414,26.9574 134.914,27.2907 135.5,27.5C 139.401,26.2963 143.235,24.9629 147,23.5C 147.333,23.8333 147.667,24.1667 148,24.5C 157.929,21.4065 167.595,18.4065 177,15.5C 181.299,15.4584 185.799,15.6251 190.5,16C 202.841,18.8914 215.008,22.3914 227,26.5C 227.333,26.1667 227.667,25.8333 228,25.5C 230.168,27.4545 232.502,28.1212 235,27.5C 236.439,29.0139 237.939,29.3473 239.5,28.5C 242.165,29.8477 244.831,30.181 247.5,29.5C 251.626,30.619 255.293,32.619 258.5,35.5C 259.962,34.5291 261.295,34.8624 262.5,36.5C 263.086,36.2907 263.586,35.9574 264,35.5C 266.355,36.8081 268.855,37.8081 271.5,38.5C 276.159,43.7576 280.659,49.7576 285,56.5C 291.182,62.2551 297.349,67.9218 303.5,73.5C 306.453,77.7569 309.12,82.0903 311.5,86.5C 312.552,86.3505 313.552,86.5172 314.5,87C 317.036,90.4981 319.869,93.6647 323,96.5C 323.333,98.0468 322.833,99.3801 321.5,100.5C 322.421,102.031 322.088,103.365 320.5,104.5 Z"/></g>
<g><path style="opacity:1" fill="#f5a602" d="M 184.5,25.5 C 191.23,26.5159 197.897,27.8492 204.5,29.5C 205.086,29.2907 205.586,28.9574 206,28.5C 209.36,31.0144 213.027,33.0144 217,34.5C 218.79,35.2849 220.457,35.2849 222,34.5C 226.98,35.7947 231.813,37.628 236.5,40C 244.972,41.3692 253.306,43.2025 261.5,45.5C 264.048,50.6833 268.048,54.5166 273.5,57C 279.155,64.7431 285.988,71.2431 294,76.5C 294.219,77.938 294.719,79.2713 295.5,80.5C 299.174,82.343 302.008,85.0096 304,88.5C 305.136,91.0964 305.969,93.763 306.5,96.5C 301.861,98.8419 296.861,100.342 291.5,101C 290.354,101.645 289.354,102.478 288.5,103.5C 287.554,103.013 286.554,102.68 285.5,102.5C 277.953,104.924 270.453,107.258 263,109.5C 259.65,109.507 256.316,109.507 253,109.5C 249.342,111.21 245.508,112.543 241.5,113.5C 236.579,110.645 231.412,109.312 226,109.5C 212.441,104.554 198.274,100.72 183.5,98C 179.004,95.3558 174.17,93.5225 169,92.5C 164.147,88.4722 159.98,83.8056 156.5,78.5C 151.335,75.1679 147.002,71.0012 143.5,66C 142.234,65.6905 141.067,65.1905 140,64.5C 134.799,57.8383 129.299,51.5049 123.5,45.5C 124.04,44.2519 124.707,43.0852 125.5,42C 133.048,40.0865 140.381,37.7532 147.5,35C 156.097,33.2339 164.763,31.9006 173.5,31C 176.433,27.5334 180.1,25.7 184.5,25.5 Z"/></g>
<g><path style="opacity:1" fill="#8e5b11" d="M 263.5,91.5 C 266.786,92.2071 270.119,92.5405 273.5,92.5C 272.378,93.1558 271.045,93.4892 269.5,93.5C 267.117,93.639 265.117,92.9723 263.5,91.5 Z"/></g>
<g><path style="opacity:1" fill="#44231a" d="M 273.5,92.5 C 270.119,92.5405 266.786,92.2071 263.5,91.5C 261.602,89.0269 259.935,86.3602 258.5,83.5C 259.801,80.5729 260.801,77.5729 261.5,74.5C 263.698,73.9856 265.698,72.9856 267.5,71.5C 278.922,73.0578 282.422,79.0578 278,89.5C 276.6,90.748 275.1,91.748 273.5,92.5 Z"/></g>
<g><path style="opacity:1" fill="#f4a504" d="M 320.5,104.5 C 320.346,108.799 319.346,113.133 317.5,117.5C 315.96,119.838 315.294,122.505 315.5,125.5C 313.58,132.764 311.914,140.098 310.5,147.5C 308.215,150.335 306.882,153.668 306.5,157.5C 305.862,159.46 305.862,161.293 306.5,163C 304.478,168.213 302.311,173.379 300,178.5C 299.505,183.783 298.338,188.783 296.5,193.5C 295.265,193.721 294.265,194.388 293.5,195.5C 293.436,194.635 293.103,193.635 292.5,192.5C 289.18,189.181 287.846,189.848 288.5,194.5C 285.955,194.849 283.955,194.016 282.5,192C 284.167,191.667 285.833,191.333 287.5,191C 284.258,190.717 283.924,189.883 286.5,188.5C 284.683,188.255 283.016,188.255 281.5,188.5C 280.752,190.332 279.752,191.999 278.5,193.5C 279.418,195.839 281.084,197.339 283.5,198C 282.095,199.269 280.429,199.769 278.5,199.5C 278.627,196.755 277.46,194.755 275,193.5C 274.517,194.448 274.351,195.448 274.5,196.5C 272.304,196.435 270.304,195.768 268.5,194.5C 269.369,191.237 270.703,190.904 272.5,193.5C 274.791,191.183 274.791,189.016 272.5,187C 274.199,186.607 275.699,187.107 277,188.5C 280.312,186.879 280.312,186.545 277,187.5C 275.289,184.745 273.122,182.411 270.5,180.5C 269.107,181.863 267.441,182.696 265.5,183C 270.002,183.935 270.335,185.269 266.5,187C 267.5,187.333 268.5,187.667 269.5,188C 265.955,188.717 262.455,188.55 259,187.5C 256.914,187.919 255.414,189.086 254.5,191C 256.047,191.333 257.38,190.833 258.5,189.5C 260.048,191.922 261.714,191.922 263.5,189.5C 263.588,190.922 263.588,192.422 263.5,194C 262.146,195.294 260.812,195.46 259.5,194.5C 258.155,195.347 257.155,196.513 256.5,198C 255.5,198.167 254.5,198.333 253.5,198.5C 251.662,197.888 249.995,197.888 248.5,198.5C 247.494,198.062 247.494,197.396 248.5,196.5C 247.045,195.255 245.711,195.422 244.5,197C 245.167,197.333 245.833,197.667 246.5,198C 244.97,200.197 243.136,201.03 241,200.5C 240.333,201.5 240.333,202.5 241,203.5C 242.667,202.167 244.333,202.167 246,203.5C 245.923,202.262 246.089,201.262 246.5,200.5C 247.167,201.167 247.833,201.833 248.5,202.5C 247.984,201.242 248.65,200.242 250.5,199.5C 250.736,200.247 251.07,201.08 251.5,202C 249.789,203.133 249.289,204.633 250,206.5C 254.232,205.678 257.899,203.345 261,199.5C 263.333,200.167 265.667,200.833 268,201.5C 268.75,200.874 269.584,200.374 270.5,200C 269.044,199.577 268.544,198.744 269,197.5C 270.333,197.5 271.667,197.5 273,197.5C 273.309,198.766 273.809,199.933 274.5,201C 272.099,201.805 272.266,202.638 275,203.5C 276.365,199.828 278.365,199.494 281,202.5C 282.194,201.57 283.527,200.903 285,200.5C 288.904,202.161 290.737,204.827 290.5,208.5C 289.131,206.876 287.464,206.376 285.5,207C 289.569,210.026 289.236,210.859 284.5,209.5C 281.008,211.123 277.341,211.956 273.5,212C 274.305,209.866 273.638,208.033 271.5,206.5C 268.048,205.608 265.048,203.942 262.5,201.5C 262.167,201.667 261.833,201.833 261.5,202C 266.701,206.983 266.368,207.483 260.5,203.5C 259.289,204.274 259.289,205.107 260.5,206C 258.092,207.528 255.758,209.028 253.5,210.5C 254.04,211.748 254.707,212.915 255.5,214C 253.325,213.951 251.158,213.451 249,212.5C 247.274,213.648 247.441,214.815 249.5,216C 247.865,216.54 246.532,216.04 245.5,214.5C 244.205,215.098 242.872,215.598 241.5,216C 242.614,217.449 243.614,218.783 244.5,220C 242.915,220.085 241.582,220.251 240.5,220.5C 241.624,221.914 242.624,223.414 243.5,225C 242.551,225.617 241.718,225.451 241,224.5C 238.879,226.457 236.379,226.957 233.5,226C 234.658,224.991 235.325,223.658 235.5,222C 234.965,220.128 234.965,218.462 235.5,217C 234.833,216.667 234.167,216.333 233.5,216C 234.685,214.647 236.019,213.48 237.5,212.5C 235.045,211.645 232.712,210.645 230.5,209.5C 230.338,207.473 230.505,205.473 231,203.5C 237.308,182.813 243.808,162.147 250.5,141.5C 247.36,135.9 245.027,136.233 243.5,142.5C 243.833,143.167 244.167,143.833 244.5,144.5C 242.337,149.802 240.17,155.135 238,160.5C 230.744,182.852 224.41,205.519 219,228.5C 218.108,231.284 216.942,233.95 215.5,236.5C 215.833,237.167 216.167,237.833 216.5,238.5C 214.421,241.601 212.754,244.935 211.5,248.5C 211.709,249.086 212.043,249.586 212.5,250C 210.683,251.8 209.516,253.966 209,256.5C 207.003,265.773 204.503,274.773 201.5,283.5C 201.657,282.127 201.49,280.793 201,279.5C 198.822,280.893 197.822,282.56 198,284.5C 197.667,283.5 197.333,282.5 197,281.5C 196.08,281.07 195.247,280.736 194.5,280.5C 195.894,279.313 195.727,278.646 194,278.5C 192.312,281.705 190.312,282.039 188,279.5C 185.043,281.077 182.376,280.744 180,278.5C 177.294,279.705 175.461,281.705 174.5,284.5C 173.232,283.572 171.899,283.405 170.5,284C 171.653,285.883 173.319,286.716 175.5,286.5C 175.238,287.978 175.571,289.311 176.5,290.5C 177.192,289.975 177.692,289.308 178,288.5C 179.825,289.103 181.659,289.77 183.5,290.5C 182.833,292.167 182.167,293.833 181.5,295.5C 179.726,296.187 178.059,297.02 176.5,298C 179.949,299.248 179.616,300.582 175.5,302C 177.569,302.324 177.902,303.158 176.5,304.5C 177.325,305.386 178.325,305.719 179.5,305.5C 179.807,307.446 179.807,309.113 179.5,310.5C 177.33,310.202 175.496,308.869 174,306.5C 173.5,307.667 172.667,308.5 171.5,309C 174.022,310.686 173.689,312.019 170.5,313C 172.211,314.133 172.711,315.633 172,317.5C 170.677,315.161 169.177,312.995 167.5,311C 167.833,310.667 168.167,310.333 168.5,310C 166.56,308.793 164.727,308.626 163,309.5C 162.502,306.518 162.335,303.518 162.5,300.5C 159.347,299.984 156.68,298.65 154.5,296.5C 153.71,295.391 153.21,294.058 153,292.5C 149.378,290.603 147.212,287.603 146.5,283.5C 151.119,282.243 155.785,281.243 160.5,280.5C 169.192,281.108 171.858,277.442 168.5,269.5C 166.744,268.448 166.077,266.781 166.5,264.5C 165.952,263.312 165.619,262.145 165.5,261C 167.125,258.18 169.125,257.847 171.5,260C 172.696,261.364 173.696,262.864 174.5,264.5C 173.957,265.864 173.79,267.197 174,268.5C 175.167,266.833 176.333,265.167 177.5,263.5C 180.546,264.984 182.879,264.15 184.5,261C 183.662,259.845 182.662,258.678 181.5,257.5C 182.217,254.744 183.884,252.744 186.5,251.5C 187.515,248.456 188.515,245.456 189.5,242.5C 192.09,242.396 194.423,243.063 196.5,244.5C 197.554,244.32 198.554,243.987 199.5,243.5C 200.498,241.51 201.498,239.51 202.5,237.5C 201.098,236.158 201.431,235.324 203.5,235C 200.361,233.982 197.195,233.149 194,232.5C 193.073,228.551 193.906,225.051 196.5,222C 194.316,219.632 191.649,218.965 188.5,220C 186.784,223.576 185.117,227.076 183.5,230.5C 180.308,229.134 176.974,228.301 173.5,228C 172.106,227.044 171.439,225.711 171.5,224C 174.291,218.269 173.958,212.769 170.5,207.5C 172.176,206.817 172.843,205.483 172.5,203.5C 175.198,203.55 177.364,202.55 179,200.5C 179.5,202.333 180.667,203.5 182.5,204C 181.483,205.049 181.316,206.216 182,207.5C 182.324,205.431 183.158,205.098 184.5,206.5C 187.538,204.481 190.871,203.314 194.5,203C 192.833,202.667 191.167,202.333 189.5,202C 189.833,201.667 190.167,201.333 190.5,201C 188.973,199.307 187.64,197.473 186.5,195.5C 186.667,195.167 186.833,194.833 187,194.5C 187.833,195.5 188.667,196.5 189.5,197.5C 190.364,195.803 191.697,194.637 193.5,194C 192.619,193.292 191.953,192.458 191.5,191.5C 203.296,195.924 209.63,191.758 210.5,179C 209.242,176.815 209.242,174.648 210.5,172.5C 208.022,171.278 207.022,169.278 207.5,166.5C 206.325,166.719 205.325,166.386 204.5,165.5C 203.872,163.742 202.872,162.242 201.5,161C 194.988,159.131 192.821,154.964 195,148.5C 197.064,147.409 199.231,147.242 201.5,148C 205.834,149.833 210.167,151.667 214.5,153.5C 216.025,150.722 217.025,147.722 217.5,144.5C 210.919,142.075 204.252,140.075 197.5,138.5C 196.934,134.232 197.6,130.066 199.5,126C 196.281,124.488 192.614,123.321 188.5,122.5C 188.586,121.504 188.252,120.671 187.5,120C 190.226,119.818 192.893,119.318 195.5,118.5C 194.167,117.5 194.167,116.5 195.5,115.5C 194.624,114.749 193.624,114.249 192.5,114C 193.167,113.667 193.833,113.333 194.5,113C 192.212,112.178 189.878,111.511 187.5,111C 188.056,110.617 188.389,110.117 188.5,109.5C 189.117,109.389 189.617,109.056 190,108.5C 195.494,111.331 201.327,113.164 207.5,114C 209.004,115.788 210.671,116.288 212.5,115.5C 216.335,117.711 220.335,119.711 224.5,121.5C 228.327,122.332 232.327,122.332 236.5,121.5C 241.164,123.538 245.83,124.871 250.5,125.5C 256.75,122.518 263.083,119.685 269.5,117C 276.563,115.801 283.397,113.967 290,111.5C 290.873,111.735 291.707,112.069 292.5,112.5C 300.273,108.121 308.606,105.121 317.5,103.5C 319.333,100.71 320.333,101.043 320.5,104.5 Z"/></g>
<g><path style="opacity:0.302" fill="#fde2aa" d="M 317.5,117.5 C 317.435,120.428 316.768,123.095 315.5,125.5C 315.294,122.505 315.96,119.838 317.5,117.5 Z"/></g>
<g><path style="opacity:1" fill="#945f10" d="M 172.5,131.5 C 167.773,130.413 164.773,132.08 163.5,136.5C 163.357,134.738 163.691,133.071 164.5,131.5C 167.309,130.2 169.976,130.2 172.5,131.5 Z"/></g>
<g><path style="opacity:0.753" fill="#f9cd7e" d="M 81.5,134.5 C 81.8476,138.085 81.181,141.418 79.5,144.5C 78.9033,144.265 78.5699,143.765 78.5,143C 79.4356,140.02 80.4356,137.186 81.5,134.5 Z"/></g>
<g><path style="opacity:1" fill="#a0690f" d="M 166.5,149.5 C 166.294,151.549 165.461,151.883 164,150.5C 161.589,151.565 159.422,152.899 157.5,154.5C 158.751,150.079 161.751,148.412 166.5,149.5 Z"/></g>
<g><path style="opacity:0.42" fill="#f3d091" d="M 310.5,147.5 C 310.528,149.582 309.861,151.416 308.5,153C 308.833,153.333 309.167,153.667 309.5,154C 308.364,155.145 307.364,156.312 306.5,157.5C 306.882,153.668 308.215,150.335 310.5,147.5 Z"/></g>
<g><path style="opacity:1" fill="#432219" d="M 188.5,122.5 C 192.614,123.321 196.281,124.488 199.5,126C 197.6,130.066 196.934,134.232 197.5,138.5C 204.252,140.075 210.919,142.075 217.5,144.5C 217.025,147.722 216.025,150.722 214.5,153.5C 210.167,151.667 205.834,149.833 201.5,148C 199.231,147.242 197.064,147.409 195,148.5C 192.821,154.964 194.988,159.131 201.5,161C 202.872,162.242 203.872,163.742 204.5,165.5C 205.325,166.386 206.325,166.719 207.5,166.5C 207.022,169.278 208.022,171.278 210.5,172.5C 209.242,174.648 209.242,176.815 210.5,179C 209.63,191.758 203.296,195.924 191.5,191.5C 191.357,189.738 191.691,188.071 192.5,186.5C 200.261,179.632 200.261,172.965 192.5,166.5C 190.215,168.876 188.215,171.542 186.5,174.5C 184.377,176.31 182.043,177.643 179.5,178.5C 179.67,179.822 179.337,180.989 178.5,182C 173.092,184.192 167.925,183.692 163,180.5C 161.133,177.786 158.633,176.119 155.5,175.5C 155.038,171.04 154.038,166.707 152.5,162.5C 153.802,159.573 155.469,156.906 157.5,154.5C 159.422,152.899 161.589,151.565 164,150.5C 165.461,151.883 166.294,151.549 166.5,149.5C 170.059,150.817 173.725,151.817 177.5,152.5C 182.413,150.498 182.746,147.998 178.5,145C 174.5,144 170.5,143 166.5,142C 164.323,140.814 163.323,138.981 163.5,136.5C 164.773,132.08 167.773,130.413 172.5,131.5C 175.505,133.277 178.838,134.277 182.5,134.5C 182.885,130.675 183.885,127.009 185.5,123.5C 186.417,122.873 187.417,122.539 188.5,122.5 Z"/></g>
<g><path style="opacity:1" fill="#e99d02" d="M 166.5,160.5 C 169.545,160.508 172.545,160.841 175.5,161.5C 175.472,163.582 176.139,165.416 177.5,167C 174.194,170.721 170.194,171.554 165.5,169.5C 165.62,167.266 165.287,165.099 164.5,163C 165.056,161.989 165.722,161.156 166.5,160.5 Z"/></g>
<g><path style="opacity:1" fill="#452418" d="M 220.5,160.5 C 228.544,160.94 231.377,164.94 229,172.5C 226.888,173.223 224.888,174.223 223,175.5C 217.84,175.172 214.674,172.505 213.5,167.5C 214.641,166.575 214.641,165.741 213.5,165C 215.937,163.461 218.27,161.961 220.5,160.5 Z"/></g>
<g><path style="opacity:0.729" fill="#f7d186" d="M 72.5,169.5 C 72.0736,173.902 70.7403,177.902 68.5,181.5C 69.4293,177.873 70.2627,174.207 71,170.5C 71.3826,169.944 71.8826,169.611 72.5,169.5 Z"/></g>
<g><path style="opacity:1" fill="#f5a608" d="M 124.5,186.5 C 120.161,203.62 115.661,220.953 111,238.5C 105.304,252.514 100.804,267.014 97.5,282C 98.8503,284.055 98.517,285.555 96.5,286.5C 92.0745,298.766 88.4078,311.266 85.5,324C 83.5307,330.716 81.0307,337.216 78,343.5C 77.3333,347.167 77.3333,350.833 78,354.5C 79.0113,355.337 80.1779,355.67 81.5,355.5C 82.0566,350.377 83.2233,345.377 85,340.5C 86.3586,337.276 87.8586,334.276 89.5,331.5C 92.548,333.47 94.7147,332.804 96,329.5C 97.0495,330.517 98.2161,330.684 99.5,330C 101.055,328.417 102.222,326.584 103,324.5C 103.677,326.689 104.844,327.022 106.5,325.5C 107.167,327.833 107.833,330.167 108.5,332.5C 109.086,332.291 109.586,331.957 110,331.5C 110.49,332.793 110.657,334.127 110.5,335.5C 109.713,339.533 108.713,343.533 107.5,347.5C 109.897,350.727 111.064,354.394 111,358.5C 112.423,360.345 113.59,362.345 114.5,364.5C 117.631,366.992 120.965,368.992 124.5,370.5C 124.297,372.044 123.63,373.378 122.5,374.5C 122.709,375.086 123.043,375.586 123.5,376C 122.328,376.419 121.328,377.085 120.5,378C 122.895,378.681 125.228,379.515 127.5,380.5C 126.574,383.955 125.074,384.288 123,381.5C 122.055,381.905 121.388,382.572 121,383.5C 117.89,382.327 117.723,382.827 120.5,385C 120.167,385.333 119.833,385.667 119.5,386C 121.066,386.608 122.4,387.442 123.5,388.5C 112.222,385.948 101.556,382.948 91.5,379.5C 89.4006,378.388 87.0673,377.721 84.5,377.5C 83.7688,377.058 82.7688,376.891 81.5,377C 79.9069,376.051 78.5736,374.885 77.5,373.5C 77.5,372.5 77.5,371.5 77.5,370.5C 76.5,370.5 75.5,370.5 74.5,370.5C 68.8918,366.561 63.8918,361.894 59.5,356.5C 51.9084,351.736 45.2417,346.069 39.5,339.5C 39.573,337.973 38.9063,336.973 37.5,336.5C 35.6064,335.952 33.9397,334.952 32.5,333.5C 30.8232,330.147 28.6566,327.147 26,324.5C 25.876,319.106 26.5427,313.773 28,308.5C 30.3493,303.896 32.516,299.229 34.5,294.5C 34.2907,293.914 33.9574,293.414 33.5,293C 36.0789,288.371 37.7456,283.371 38.5,278C 40.1445,276.968 40.4779,275.801 39.5,274.5C 40.9986,269.989 42.6652,265.656 44.5,261.5C 45.5862,261.38 46.2528,260.713 46.5,259.5C 47.2692,256.885 47.6025,254.219 47.5,251.5C 47.253,248.495 48.253,245.995 50.5,244C 50.1962,239.535 51.1962,235.202 53.5,231C 53.0426,230.586 52.7093,230.086 52.5,229.5C 55.6429,220.786 58.1429,212.119 60,203.5C 61.536,199.339 63.3693,195.339 65.5,191.5C 68.1993,193.492 71.1993,195.159 74.5,196.5C 76.7751,195.402 78.9417,194.068 81,192.5C 84.3542,193.957 85.5208,196.29 84.5,199.5C 83.147,198.315 81.9803,196.981 81,195.5C 79.8099,198.2 77.9766,200.367 75.5,202C 76.6184,203.074 77.6184,204.24 78.5,205.5C 80.2828,204.652 80.7828,203.319 80,201.5C 78.9125,203.932 78.4125,203.598 78.5,200.5C 81.4785,202.092 84.3119,204.092 87,206.5C 87.2833,203.258 88.1166,202.924 89.5,205.5C 90.7472,203.994 90.7472,202.494 89.5,201C 91.2889,200.48 92.9556,200.813 94.5,202C 92.842,202.725 92.342,203.892 93,205.5C 94.6171,204.149 95.7838,202.482 96.5,200.5C 97.1924,201.025 97.6924,201.692 98,202.5C 98.3242,200.431 99.1575,200.098 100.5,201.5C 101.604,200.369 101.271,199.535 99.5,199C 100.646,198.355 101.646,197.522 102.5,196.5C 103.258,197.811 104.258,198.311 105.5,198C 105.167,197.667 104.833,197.333 104.5,197C 106.137,195.049 107.637,195.216 109,197.5C 112.626,194.313 115.293,194.979 117,199.5C 117.92,196.692 117.087,194.525 114.5,193C 115.253,191.513 116.086,191.346 117,192.5C 118.113,191.24 118.28,190.073 117.5,189C 119.167,188 120.833,187 122.5,186C 121.257,184.846 120.257,183.512 119.5,182C 120.744,181.544 121.577,182.044 122,183.5C 122.333,183.167 122.667,182.833 123,182.5C 124.188,183.563 124.688,184.897 124.5,186.5 Z"/></g>
<g><path style="opacity:0.149" fill="#ddd4c2" d="M 294.5,199.5 C 294.938,199.435 295.272,199.601 295.5,200C 294.934,200.995 294.267,201.828 293.5,202.5C 293.263,201.209 293.596,200.209 294.5,199.5 Z"/></g>
<g><path style="opacity:1" fill="#f3a402" d="M 147.5,207.5 C 151.798,207.989 155.965,208.989 160,210.5C 161.195,215.611 160.361,220.277 157.5,224.5C 145.312,215.764 138.312,218.764 136.5,233.5C 136.557,240.003 139.224,245.003 144.5,248.5C 148.621,248.112 152.955,247.612 157.5,247C 162.792,244.71 165.792,240.71 166.5,235C 167.833,234.333 169.167,234.333 170.5,235C 174.273,236.354 177.94,237.854 181.5,239.5C 179.796,242.715 178.296,246.049 177,249.5C 174.453,250.473 172.953,252.307 172.5,255C 175.252,256.751 178.252,257.584 181.5,257.5C 182.662,258.678 183.662,259.845 184.5,261C 182.879,264.15 180.546,264.984 177.5,263.5C 176.333,265.167 175.167,266.833 174,268.5C 173.79,267.197 173.957,265.864 174.5,264.5C 173.696,262.864 172.696,261.364 171.5,260C 169.125,257.847 167.125,258.18 165.5,261C 165.619,262.145 165.952,263.312 166.5,264.5C 161.466,265.02 156.466,265.853 151.5,267C 145.937,269.188 140.27,271.188 134.5,273C 132.586,274.413 131.253,276.247 130.5,278.5C 135.667,289.84 140.834,301.173 146,312.5C 146.561,313.022 147.228,313.355 148,313.5C 152.216,312.558 156.383,311.558 160.5,310.5C 160.421,309.07 160.754,307.736 161.5,306.5C 160.902,305.205 160.402,303.872 160,302.5C 157.279,301.281 155.446,299.281 154.5,296.5C 156.68,298.65 159.347,299.984 162.5,300.5C 162.335,303.518 162.502,306.518 163,309.5C 164.727,308.626 166.56,308.793 168.5,310C 168.167,310.333 167.833,310.667 167.5,311C 169.177,312.995 170.677,315.161 172,317.5C 172.711,315.633 172.211,314.133 170.5,313C 173.689,312.019 174.022,310.686 171.5,309C 172.667,308.5 173.5,307.667 174,306.5C 175.496,308.869 177.33,310.202 179.5,310.5C 179.807,309.113 179.807,307.446 179.5,305.5C 178.325,305.719 177.325,305.386 176.5,304.5C 177.902,303.158 177.569,302.324 175.5,302C 179.616,300.582 179.949,299.248 176.5,298C 178.059,297.02 179.726,296.187 181.5,295.5C 182.167,293.833 182.833,292.167 183.5,290.5C 181.659,289.77 179.825,289.103 178,288.5C 177.692,289.308 177.192,289.975 176.5,290.5C 175.571,289.311 175.238,287.978 175.5,286.5C 173.319,286.716 171.653,285.883 170.5,284C 171.899,283.405 173.232,283.572 174.5,284.5C 175.461,281.705 177.294,279.705 180,278.5C 182.376,280.744 185.043,281.077 188,279.5C 190.312,282.039 192.312,281.705 194,278.5C 195.727,278.646 195.894,279.313 194.5,280.5C 195.247,280.736 196.08,281.07 197,281.5C 197.333,282.5 197.667,283.5 198,284.5C 197.822,282.56 198.822,280.893 201,279.5C 201.49,280.793 201.657,282.127 201.5,283.5C 199.895,290.645 197.895,297.645 195.5,304.5C 193.285,315.974 189.785,327.307 185,338.5C 182.598,349.774 180.098,360.441 177.5,370.5C 173,370.836 171.167,368.836 172,364.5C 172.925,363.953 173.758,363.287 174.5,362.5C 173.019,361.52 171.685,360.353 170.5,359C 171.167,358.333 171.833,357.667 172.5,357C 170.831,356.878 169.165,357.212 167.5,358C 170.182,360.33 169.849,360.83 166.5,359.5C 165.246,361.259 165.579,362.759 167.5,364C 163.866,364.647 160.7,366.147 158,368.5C 157.349,370.235 157.515,371.902 158.5,373.5C 157.624,374.251 156.624,374.751 155.5,375C 156.276,376.77 156.11,378.603 155,380.5C 153.171,382.156 151.837,384.156 151,386.5C 147.05,388.575 142.884,390.908 138.5,393.5C 133.291,391.339 128.291,389.672 123.5,388.5C 122.4,387.442 121.066,386.608 119.5,386C 119.833,385.667 120.167,385.333 120.5,385C 117.723,382.827 117.89,382.327 121,383.5C 121.388,382.572 122.055,381.905 123,381.5C 125.074,384.288 126.574,383.955 127.5,380.5C 125.228,379.515 122.895,378.681 120.5,378C 121.328,377.085 122.328,376.419 123.5,376C 123.043,375.586 122.709,375.086 122.5,374.5C 123.63,373.378 124.297,372.044 124.5,370.5C 129.191,370.039 133.858,370.705 138.5,372.5C 145.163,369.676 148.83,364.676 149.5,357.5C 149.167,356.833 148.833,356.167 148.5,355.5C 145.09,353.76 141.423,352.76 137.5,352.5C 137.167,354.5 136.833,356.5 136.5,358.5C 134.116,358.443 131.782,358.777 129.5,359.5C 127.153,358.058 124.82,356.724 122.5,355.5C 122.041,345.296 123.708,335.463 127.5,326C 125.494,321.777 122.161,319.777 117.5,320C 114.259,325.271 111.926,330.437 110.5,335.5C 110.657,334.127 110.49,332.793 110,331.5C 109.586,331.957 109.086,332.291 108.5,332.5C 107.833,330.167 107.167,327.833 106.5,325.5C 104.844,327.022 103.677,326.689 103,324.5C 102.222,326.584 101.055,328.417 99.5,330C 98.2161,330.684 97.0495,330.517 96,329.5C 94.7147,332.804 92.548,333.47 89.5,331.5C 88.0213,329.088 88.5213,327.088 91,325.5C 93.6845,315.026 96.6845,304.693 100,294.5C 101.108,290.914 101.608,287.247 101.5,283.5C 103.942,283.646 104.609,282.813 103.5,281C 107.399,267.912 111.233,254.745 115,241.5C 118.082,238.871 119.249,235.704 118.5,232C 120.918,224.155 123.251,216.321 125.5,208.5C 126.834,206.841 128.501,205.508 130.5,204.5C 131.72,205.711 132.887,205.711 134,204.5C 134.359,207.544 135.026,207.878 136,205.5C 136.595,209.082 137.929,209.416 140,206.5C 142.153,211.447 144.653,211.78 147.5,207.5 Z"/></g>
<g><path style="opacity:1" fill="#422218" d="M 170.5,207.5 C 173.958,212.769 174.291,218.269 171.5,224C 171.439,225.711 172.106,227.044 173.5,228C 176.974,228.301 180.308,229.134 183.5,230.5C 185.117,227.076 186.784,223.576 188.5,220C 191.649,218.965 194.316,219.632 196.5,222C 193.906,225.051 193.073,228.551 194,232.5C 197.195,233.149 200.361,233.982 203.5,235C 201.431,235.324 201.098,236.158 202.5,237.5C 201.498,239.51 200.498,241.51 199.5,243.5C 198.554,243.987 197.554,244.32 196.5,244.5C 194.423,243.063 192.09,242.396 189.5,242.5C 188.515,245.456 187.515,248.456 186.5,251.5C 183.884,252.744 182.217,254.744 181.5,257.5C 178.252,257.584 175.252,256.751 172.5,255C 172.953,252.307 174.453,250.473 177,249.5C 178.296,246.049 179.796,242.715 181.5,239.5C 177.94,237.854 174.273,236.354 170.5,235C 169.167,234.333 167.833,234.333 166.5,235C 165.792,240.71 162.792,244.71 157.5,247C 152.955,247.612 148.621,248.112 144.5,248.5C 139.224,245.003 136.557,240.003 136.5,233.5C 138.312,218.764 145.312,215.764 157.5,224.5C 160.361,220.277 161.195,215.611 160,210.5C 155.965,208.989 151.798,207.989 147.5,207.5C 146.496,200.802 149.496,196.802 156.5,195.5C 163.328,196.944 167.995,200.944 170.5,207.5 Z"/></g>
<g><path style="opacity:1" fill="#f6a708" d="M 296.5,193.5 C 295.833,195.5 295.167,197.5 294.5,199.5C 293.596,200.209 293.263,201.209 293.5,202.5C 291.773,212.295 289.107,221.462 285.5,230C 285.957,230.414 286.291,230.914 286.5,231.5C 282.739,239.961 280.072,248.461 278.5,257C 273.665,270.172 269.331,283.172 265.5,296C 265.833,296.333 266.167,296.667 266.5,297C 264.729,299.927 264.062,302.927 264.5,306C 263.453,308.979 262.119,311.812 260.5,314.5C 260.709,315.086 261.043,315.586 261.5,316C 260.313,318.774 258.98,321.441 257.5,324C 257.957,324.414 258.291,324.914 258.5,325.5C 255.596,329.37 254.263,333.537 254.5,338C 251.435,345.885 248.435,353.718 245.5,361.5C 244.833,362.167 244.167,362.833 243.5,363.5C 242.694,364.868 241.694,366.201 240.5,367.5C 242.509,371.379 241.509,373.879 237.5,375C 239.684,376.898 240.017,379.064 238.5,381.5C 236.703,384.969 234.037,386.302 230.5,385.5C 227.67,385.963 225.003,386.629 222.5,387.5C 211.726,390.965 200.059,393.465 187.5,395C 180.615,396.696 173.782,398.529 167,400.5C 158.832,398.944 150.666,397.444 142.5,396C 141.142,395.066 139.808,394.232 138.5,393.5C 142.884,390.908 147.05,388.575 151,386.5C 151.837,384.156 153.171,382.156 155,380.5C 156.11,378.603 156.276,376.77 155.5,375C 156.624,374.751 157.624,374.251 158.5,373.5C 157.515,371.902 157.349,370.235 158,368.5C 160.7,366.147 163.866,364.647 167.5,364C 165.579,362.759 165.246,361.259 166.5,359.5C 169.849,360.83 170.182,360.33 167.5,358C 169.165,357.212 170.831,356.878 172.5,357C 171.833,357.667 171.167,358.333 170.5,359C 171.685,360.353 173.019,361.52 174.5,362.5C 173.758,363.287 172.925,363.953 172,364.5C 171.167,368.836 173,370.836 177.5,370.5C 177.771,372.821 177.104,374.821 175.5,376.5C 176.471,377.962 176.138,379.295 174.5,380.5C 177.404,381.681 179.904,381.014 182,378.5C 187.659,352.396 194.659,327.063 203,302.5C 208.364,278.319 215.53,254.819 224.5,232C 223.978,231.439 223.645,230.772 223.5,230C 226.523,223.897 228.356,217.397 229,210.5C 229.383,209.944 229.883,209.611 230.5,209.5C 232.712,210.645 235.045,211.645 237.5,212.5C 236.019,213.48 234.685,214.647 233.5,216C 234.167,216.333 234.833,216.667 235.5,217C 234.965,218.462 234.965,220.128 235.5,222C 235.325,223.658 234.658,224.991 233.5,226C 236.379,226.957 238.879,226.457 241,224.5C 241.718,225.451 242.551,225.617 243.5,225C 242.624,223.414 241.624,221.914 240.5,220.5C 241.582,220.251 242.915,220.085 244.5,220C 243.614,218.783 242.614,217.449 241.5,216C 242.872,215.598 244.205,215.098 245.5,214.5C 246.532,216.04 247.865,216.54 249.5,216C 247.441,214.815 247.274,213.648 249,212.5C 251.158,213.451 253.325,213.951 255.5,214C 254.707,212.915 254.04,211.748 253.5,210.5C 255.758,209.028 258.092,207.528 260.5,206C 259.289,205.107 259.289,204.274 260.5,203.5C 266.368,207.483 266.701,206.983 261.5,202C 261.833,201.833 262.167,201.667 262.5,201.5C 265.048,203.942 268.048,205.608 271.5,206.5C 273.638,208.033 274.305,209.866 273.5,212C 277.341,211.956 281.008,211.123 284.5,209.5C 289.236,210.859 289.569,210.026 285.5,207C 287.464,206.376 289.131,206.876 290.5,208.5C 290.737,204.827 288.904,202.161 285,200.5C 283.527,200.903 282.194,201.57 281,202.5C 278.365,199.494 276.365,199.828 275,203.5C 272.266,202.638 272.099,201.805 274.5,201C 273.809,199.933 273.309,198.766 273,197.5C 271.667,197.5 270.333,197.5 269,197.5C 268.544,198.744 269.044,199.577 270.5,200C 269.584,200.374 268.75,200.874 268,201.5C 265.667,200.833 263.333,200.167 261,199.5C 257.899,203.345 254.232,205.678 250,206.5C 249.289,204.633 249.789,203.133 251.5,202C 251.07,201.08 250.736,200.247 250.5,199.5C 248.65,200.242 247.984,201.242 248.5,202.5C 247.833,201.833 247.167,201.167 246.5,200.5C 246.089,201.262 245.923,202.262 246,203.5C 244.333,202.167 242.667,202.167 241,203.5C 240.333,202.5 240.333,201.5 241,200.5C 243.136,201.03 244.97,200.197 246.5,198C 245.833,197.667 245.167,197.333 244.5,197C 245.711,195.422 247.045,195.255 248.5,196.5C 247.494,197.396 247.494,198.062 248.5,198.5C 249.995,197.888 251.662,197.888 253.5,198.5C 254.5,198.333 255.5,198.167 256.5,198C 257.155,196.513 258.155,195.347 259.5,194.5C 260.812,195.46 262.146,195.294 263.5,194C 263.588,192.422 263.588,190.922 263.5,189.5C 261.714,191.922 260.048,191.922 258.5,189.5C 257.38,190.833 256.047,191.333 254.5,191C 255.414,189.086 256.914,187.919 259,187.5C 262.455,188.55 265.955,188.717 269.5,188C 268.5,187.667 267.5,187.333 266.5,187C 270.335,185.269 270.002,183.935 265.5,183C 267.441,182.696 269.107,181.863 270.5,180.5C 273.122,182.411 275.289,184.745 277,187.5C 280.312,186.545 280.312,186.879 277,188.5C 275.699,187.107 274.199,186.607 272.5,187C 274.791,189.016 274.791,191.183 272.5,193.5C 270.703,190.904 269.369,191.237 268.5,194.5C 270.304,195.768 272.304,196.435 274.5,196.5C 274.351,195.448 274.517,194.448 275,193.5C 277.46,194.755 278.627,196.755 278.5,199.5C 280.429,199.769 282.095,199.269 283.5,198C 281.084,197.339 279.418,195.839 278.5,193.5C 279.752,191.999 280.752,190.332 281.5,188.5C 283.016,188.255 284.683,188.255 286.5,188.5C 283.924,189.883 284.258,190.717 287.5,191C 285.833,191.333 284.167,191.667 282.5,192C 283.955,194.016 285.955,194.849 288.5,194.5C 287.846,189.848 289.18,189.181 292.5,192.5C 293.103,193.635 293.436,194.635 293.5,195.5C 294.265,194.388 295.265,193.721 296.5,193.5 Z"/></g>
<g><path style="opacity:1" fill="#e59904" d="M 146.5,231.5 C 150.866,230.847 153.866,232.514 155.5,236.5C 152.424,238.772 149.091,239.438 145.5,238.5C 145.167,237.833 144.833,237.167 144.5,236.5C 145.187,234.823 145.854,233.156 146.5,231.5 Z"/></g>
<g><path style="opacity:1" fill="#f6c879" d="M 47.5,251.5 C 47.6025,254.219 47.2692,256.885 46.5,259.5C 46.2528,260.713 45.5862,261.38 44.5,261.5C 44.8993,257.884 45.8993,254.55 47.5,251.5 Z"/></g>
<g><path style="opacity:1" fill="#fcda9e" d="M 230.5,209.5 C 229.883,209.611 229.383,209.944 229,210.5C 228.356,217.397 226.523,223.897 223.5,230C 223.645,230.772 223.978,231.439 224.5,232C 215.53,254.819 208.364,278.319 203,302.5C 194.659,327.063 187.659,352.396 182,378.5C 179.904,381.014 177.404,381.681 174.5,380.5C 176.138,379.295 176.471,377.962 175.5,376.5C 177.104,374.821 177.771,372.821 177.5,370.5C 180.098,360.441 182.598,349.774 185,338.5C 189.785,327.307 193.285,315.974 195.5,304.5C 197.895,297.645 199.895,290.645 201.5,283.5C 204.503,274.773 207.003,265.773 209,256.5C 209.516,253.966 210.683,251.8 212.5,250C 212.043,249.586 211.709,249.086 211.5,248.5C 212.754,244.935 214.421,241.601 216.5,238.5C 216.167,237.833 215.833,237.167 215.5,236.5C 216.942,233.95 218.108,231.284 219,228.5C 224.41,205.519 230.744,182.852 238,160.5C 240.17,155.135 242.337,149.802 244.5,144.5C 244.167,143.833 243.833,143.167 243.5,142.5C 245.027,136.233 247.36,135.9 250.5,141.5C 243.808,162.147 237.308,182.813 231,203.5C 230.505,205.473 230.338,207.473 230.5,209.5 Z"/></g>
<g><path style="opacity:1" fill="#432218" d="M 166.5,264.5 C 166.077,266.781 166.744,268.448 168.5,269.5C 168.813,272.247 168.48,274.914 167.5,277.5C 164.873,278.058 162.54,279.058 160.5,280.5C 155.785,281.243 151.119,282.243 146.5,283.5C 147.212,287.603 149.378,290.603 153,292.5C 153.21,294.058 153.71,295.391 154.5,296.5C 155.446,299.281 157.279,301.281 160,302.5C 160.402,303.872 160.902,305.205 161.5,306.5C 160.754,307.736 160.421,309.07 160.5,310.5C 156.383,311.558 152.216,312.558 148,313.5C 147.228,313.355 146.561,313.022 146,312.5C 140.834,301.173 135.667,289.84 130.5,278.5C 131.253,276.247 132.586,274.413 134.5,273C 140.27,271.188 145.937,269.188 151.5,267C 156.466,265.853 161.466,265.02 166.5,264.5 Z"/></g>
<g><path style="opacity:1" fill="#a36a0f" d="M 168.5,269.5 C 171.858,277.442 169.192,281.108 160.5,280.5C 162.54,279.058 164.873,278.058 167.5,277.5C 168.48,274.914 168.813,272.247 168.5,269.5 Z"/></g>
<g><path style="opacity:1" fill="#fcda9f" d="M 125.5,208.5 C 123.251,216.321 120.918,224.155 118.5,232C 119.249,235.704 118.082,238.871 115,241.5C 111.233,254.745 107.399,267.912 103.5,281C 104.609,282.813 103.942,283.646 101.5,283.5C 101.608,287.247 101.108,290.914 100,294.5C 96.6845,304.693 93.6845,315.026 91,325.5C 88.5213,327.088 88.0213,329.088 89.5,331.5C 87.8586,334.276 86.3586,337.276 85,340.5C 83.2233,345.377 82.0566,350.377 81.5,355.5C 80.1779,355.67 79.0113,355.337 78,354.5C 77.3333,350.833 77.3333,347.167 78,343.5C 81.0307,337.216 83.5307,330.716 85.5,324C 88.4078,311.266 92.0745,298.766 96.5,286.5C 98.517,285.555 98.8503,284.055 97.5,282C 100.804,267.014 105.304,252.514 111,238.5C 115.661,220.953 120.161,203.62 124.5,186.5C 132.575,162.432 139.742,137.766 146,112.5C 147.699,111.594 149.533,111.261 151.5,111.5C 144.4,142.001 135.9,172.334 126,202.5C 125.505,204.473 125.338,206.473 125.5,208.5 Z"/></g>
<g><path style="opacity:1" fill="#412118" d="M 140.5,327.5 C 145.045,327.519 147.711,329.853 148.5,334.5C 147.897,342.452 143.897,345.119 136.5,342.5C 136.335,338.818 136.501,335.152 137,331.5C 137.69,329.65 138.856,328.316 140.5,327.5 Z"/></g>
<g><path style="opacity:1" fill="#422218" d="M 124.5,370.5 C 120.965,368.992 117.631,366.992 114.5,364.5C 113.59,362.345 112.423,360.345 111,358.5C 111.064,354.394 109.897,350.727 107.5,347.5C 108.713,343.533 109.713,339.533 110.5,335.5C 111.926,330.437 114.259,325.271 117.5,320C 122.161,319.777 125.494,321.777 127.5,326C 123.708,335.463 122.041,345.296 122.5,355.5C 124.82,356.724 127.153,358.058 129.5,359.5C 131.782,358.777 134.116,358.443 136.5,358.5C 136.833,356.5 137.167,354.5 137.5,352.5C 141.423,352.76 145.09,353.76 148.5,355.5C 148.833,356.167 149.167,356.833 149.5,357.5C 148.83,364.676 145.163,369.676 138.5,372.5C 133.858,370.705 129.191,370.039 124.5,370.5 Z"/></g>
<g><path style="opacity:0.149" fill="#e7d9b8" d="M 37.5,336.5 C 38.9063,336.973 39.573,337.973 39.5,339.5C 38.0937,339.027 37.427,338.027 37.5,336.5 Z"/></g>
<g><path style="opacity:1" fill="#442319" d="M 156.5,334.5 C 160.03,333.989 163.196,334.656 166,336.5C 166.925,345.596 163.258,348.596 155,345.5C 153.54,341.681 154.04,338.014 156.5,334.5 Z"/></g>
<g><path style="opacity:0.043" fill="#d6d4ce" d="M 245.5,361.5 C 245.771,363.38 245.104,364.713 243.5,365.5C 243.5,364.833 243.5,364.167 243.5,363.5C 244.167,362.833 244.833,362.167 245.5,361.5 Z"/></g>
<g><path style="opacity:0.012" fill="#ffedc7" d="M 74.5,370.5 C 75.5,370.5 76.5,370.5 77.5,370.5C 77.5,371.5 77.5,372.5 77.5,373.5C 76.5,372.5 75.5,371.5 74.5,370.5 Z"/></g>
<g><path style="opacity:1" fill="#fabe54" d="M 243.5,363.5 C 243.5,364.167 243.5,364.833 243.5,365.5C 243.318,371.523 241.651,376.857 238.5,381.5C 240.017,379.064 239.684,376.898 237.5,375C 241.509,373.879 242.509,371.379 240.5,367.5C 241.694,366.201 242.694,364.868 243.5,363.5 Z"/></g>
<g><path style="opacity:0.482" fill="#e4d2ac" d="M 84.5,377.5 C 87.0673,377.721 89.4006,378.388 91.5,379.5C 88.7718,379.829 86.4385,379.163 84.5,377.5 Z"/></g>
<g><path style="opacity:0.451" fill="#f6d99f" d="M 230.5,385.5 C 230.389,386.117 230.056,386.617 229.5,387C 227.19,387.497 224.857,387.663 222.5,387.5C 225.003,386.629 227.67,385.963 230.5,385.5 Z"/></g>
</svg>
